<?xml version="1.0" encoding="UTF-8"?>
<svg width="302px" height="90px" viewBox="0 0 302 90" version="1.1" xmlns="http://www.w3.org/2000/svg" xmlns:xlink="http://www.w3.org/1999/xlink">
    <title>Centacare_CMYK_Rev</title>
    <defs>
        <polygon id="path-1" points="0.0232876712 0.0054953271 84.8168037 0.0054953271 84.8168037 83.9988224 0.0232876712 83.9988224"></polygon>
        <polygon id="path-3" points="0.1276 0.027 39.6832 0.027 39.6832 26.8011818 0.1276 26.8011818"></polygon>
        <polygon id="path-5" points="0 0.0636428571 17.6524 0.0636428571 17.6524 13.75 0 13.75"></polygon>
    </defs>
    <g id="🤓-Symbols" stroke="none" stroke-width="1" fill="none" fill-rule="evenodd">
        <g id="Footer" transform="translate(-549.000000, -90.000000)">
            <g id="Centacare_CMYK_Rev" transform="translate(549.000000, 90.000000)">
                <path d="M4.4816409,29.755099 C6.37318936,25.7295637 8.94582101,21.9466006 12.1661302,18.4686965 C20.834712,9.10618308 32.820676,3.56156317 44.9783845,2.25516595 L45,1 C44.4533256,1.057053 43.9062582,1.11992773 43.3580118,1.19405782 C30.9075121,2.87886777 19.5028072,8.71845557 11.244919,17.6373528 C7.73574877,21.4273019 4.97290115,25.5739293 3,30 L4.4816409,29.755099" id="Fill-1" fill="#EB8B2D"></path>
                <g id="Group-5" transform="translate(0.000000, 1.000000)">
                    <mask id="mask-2" fill="white">
                        <use xlink:href="#path-1"></use>
                    </mask>
                    <g id="Clip-3"></g>
                    <path d="M50.8404795,1.26981308 C59.873379,1.35185047 68.7110502,3.91306542 76.0198858,9.14108411 C78.8578767,11.171215 81.3360731,13.515757 83.4242009,16.1119065 L84.8168037,15.8763925 C82.5710959,12.9736822 79.8627397,10.3634019 76.7317123,8.12366355 C69.3759132,2.86188785 60.3663014,0.0745794393 50.8001142,0.0054953271 L50.8404795,1.26981308" id="Fill-2" fill="#EB8B2D" mask="url(#mask-2)"></path>
                    <path d="M43.5118493,82.7109533 C33.8113699,83.0014206 24.2257763,80.4602243 16.3952968,74.8585234 C7.83242009,68.7331963 2.52050228,59.7573645 1.43762557,49.5843364 C1.11936073,46.5948785 1.17136986,43.5905047 1.58666667,40.5963364 L0.307009132,40.8789533 C-0.0659817352,43.823271 -0.100913242,46.7766168 0.211917808,49.7177944 C1.33321918,60.2515514 6.82794521,69.5414019 15.6838584,75.8763364 C23.1328082,81.2044486 32.2767123,83.9988224 41.977968,83.9988224 C42.4805936,83.9988224 42.9847717,83.9894019 43.4905023,83.974486 L43.5118493,82.7109533" id="Fill-4" fill="#EB8B2D" mask="url(#mask-2)"></path>
                </g>
                <path d="M89.8402519,22 L88.5563626,22.2750053 C90.6772077,26.1617987 92.0307438,30.427115 92.5242413,34.9299359 C93.1156422,40.3202738 92.4673299,45.7602221 90.5968154,51.0989965 C88.65745,56.6342591 85.4958825,61.7796705 81.1992709,66.3914778 C73.8600883,74.2697542 64.173211,79.4628227 54,81.7226317 L54.0421861,83 C64.9102734,80.6456579 74.7595272,75.1424272 82.1317423,67.2286033 C86.5457585,62.490231 89.796076,57.1991137 91.7919547,51.5021293 C93.7229625,45.9903046 94.3919699,40.3698842 93.7810678,34.7971208 C93.2823966,30.2521117 91.940004,25.9407007 89.8402519,22" id="Fill-6" fill="#EB8B2D"></path>
                <path d="M8.46226009,29.7590732 C15.409295,18.0967966 29.4860974,8.76492484 45.9804072,6.13286857 L46,5 C34.3550997,6.81582309 23.5346949,11.9297014 15.4176919,19.4780839 C11.9149852,22.7351304 9.09122785,26.2847589 7,30 L8.46226009,29.7590732" id="Fill-7" fill="#00A3DA"></path>
                <path d="M52.0362171,5.20474774 C52.9758938,5.15583473 53.9088783,5.1309773 54.8347768,5.1309773 C65.4400936,5.1309773 75.0592812,8.33878876 81.9696647,14.3246187 C82.9518572,15.1757853 83.8620091,16.0686482 84.6997268,17 L86,16.7786887 C85.0024546,15.6160024 83.8990135,14.507842 82.6904641,13.4614243 C74.9655891,6.76956316 63.9788116,3.45269973 52,4.0737346 L52.0362171,5.20474774" id="Fill-8" fill="#00A3DA"></path>
                <path d="M43,73.7765969 C41.8313874,73.8519316 40.6717341,73.8915607 39.523767,73.8915607 C29.0307944,73.8911684 19.5116655,70.7522253 12.6745027,64.8941728 C6.60433921,59.6937288 3.29677598,52.9038026 3.10901889,45.2577296 C3.06578022,43.494036 3.19354853,41.7377974 3.47907955,40 L2.32332167,40.2542544 C2.0755758,41.9265263 1.96728436,43.6066456 2.00857534,45.2851954 C2.20412318,53.2553642 5.64568733,60.3281877 11.9608699,65.7389408 C18.9986446,71.7688505 28.7717519,75 39.5280519,75 C40.6686178,75 41.8208699,74.9615479 42.9813022,74.8885675 L43,73.7765969" id="Fill-9" fill="#00A3DA"></path>
                <path d="M88.9912096,23 L87.8473536,23.2412557 C89.736111,26.6730897 90.7615958,30.4581497 90.8648218,34.4860046 C91.3016393,51.5551364 74.7452206,67.928205 53,72.889531 L53.0374643,74 C63.0312584,71.7663644 72.2151865,67.1305604 79.3210431,60.6616746 C87.7277868,53.0080577 92.2274851,43.7025893 91.9911413,34.4590702 C91.8859225,30.3611857 90.8668146,26.5057113 88.9912096,23" id="Fill-10" fill="#00A3DA"></path>
                <path d="M12.6160085,28.7325307 C15.3161141,25.2810338 18.505594,22.065099 22.154235,19.1229362 C29.4900785,13.2067034 37.7832033,9.19466329 45.9801229,7.16678085 L46,6 C37.3244397,8.09130301 28.8277734,12.3050284 21.4446224,18.2594711 C17.3972467,21.5234637 13.9016595,25.1203158 11,29 L12.6160085,28.7325307" id="Fill-11" fill="#84BF41"></path>
                <path d="M52.0371608,6.442002 C54.0366523,6.20518354 56.0141669,6.08430349 57.9529224,6.08430349 C67.2838825,6.08430349 75.727778,8.83869606 81.5100803,14.4820458 C82.3276181,15.2799301 83.0764285,16.1203886 83.7565113,17 L85,16.8019544 C84.2028406,15.7235371 83.3089833,14.6983374 82.3188274,13.7316772 C75.7465582,7.31705192 65.7371136,4.26920213 54.1313524,5.14843343 C53.4217008,5.20203119 52.7108504,5.27045386 52,5.35256106 L52.0371608,6.442002" id="Fill-12" fill="#84BF41"></path>
                <path d="M86.2161347,23.2324244 C87.5145995,26.5663808 88.066743,30.253165 87.8319143,34.1914248 C87.5090741,39.5985305 85.6639912,45.324934 82.4951846,50.751472 C79.1645632,56.4550141 74.5615253,61.6373159 68.8127599,66.1543505 C64.171439,69.8015083 59.1433413,72.6999547 54,74.8317817 L54.0390723,76 C59.4965711,73.7786325 64.7417374,70.7418745 69.5168515,66.9895542 C75.3741511,62.3871703 80.0675685,57.1019921 83.4668625,51.2803327 C86.7185498,45.711292 88.6129665,39.8237155 88.9452788,34.2535317 C89.1860276,30.2169678 88.630332,26.4326415 87.3188431,23 L86.2161347,23.2324244" id="Fill-13" fill="#84BF41"></path>
                <path d="M43,78.5844266 C29.7622465,81.6478714 16.8925758,79.3383913 9.04883133,71.2706179 C4.09410928,66.1754079 1.70935261,59.409228 2.1521415,51.7049803 C2.37120138,47.889521 3.30424861,43.9184322 4.88552633,40 L3.59606906,40.2823955 C2.13579955,44.0869334 1.26695282,47.9328164 1.05411844,51.6417923 C0.593042138,59.6631499 3.08518873,66.7167959 8.26130522,72.0405746 C13.9389638,77.879608 22.2503991,81 31.9438961,81 C33.1773238,81 34.433319,80.9496837 35.7087689,80.8478809 C38.1301004,80.6544166 40.5607702,80.2799696 42.9801562,79.7346811 L43,78.5844266" id="Fill-14" fill="#84BF41"></path>
                <path d="M52.0363696,8.18377213 C60.0075711,9.05135356 67.8825692,12.0406441 74.5648005,17.2199539 C74.8948645,17.4756061 75.2186713,17.7365759 75.5389585,18 L77,17.7443478 C76.4235612,17.2481779 75.8318707,16.7630522 75.2229731,16.2910159 C68.49264,11.0744831 60.4420511,7.88394318 52,7 L52.0363696,8.18377213" id="Fill-15" fill="#D42679"></path>
                <path d="M10.3373944,28.7744667 C11.8103753,25.7517656 13.779721,22.9149611 16.216349,20.3492721 C23.5859697,12.5899755 34.1027707,8.4673537 44.9811358,8.13321562 L45,7 C44.5786992,7.0122874 44.1566123,7.02853848 43.7345254,7.05232055 C32.5441148,7.68095993 22.4867361,12.1278106 15.4142268,19.574373 C12.7044606,22.4274287 10.5543329,25.6059023 9,29 L10.3373944,28.7744667" id="Fill-16" fill="#D42679"></path>
                <path d="M43,78.8615163 C35.3798743,77.8610067 27.8995129,75.0270179 21.5012363,70.3059372 C16.9685958,66.9622326 13.3323475,62.9570405 10.6922666,58.4031056 C8.14641766,54.0107976 6.64622768,49.3236191 6.23287367,44.4720542 C6.07608422,42.6302966 6.08479474,40.8023364 6.24791912,39 L5.10090134,39.2495361 C4.96192888,41.0022018 4.96549227,42.7781261 5.11792646,44.5666651 C5.54474219,49.5826162 7.09442379,54.4251142 9.72302269,58.9601269 C12.4399146,63.6469112 16.1787096,67.7656363 20.8348812,71.200798 C27.284629,75.9601173 34.9324701,78.9695303 42.9805993,80 L43,78.8615163" id="Fill-17" fill="#D42679"></path>
                <g id="Group-21" transform="translate(50.000000, 0.000000)">
                    <path d="M35.2146535,28.8833478 C34.1485149,27.0583043 32.9231683,25.322087 31.5493069,23.6774348 L30.3156436,23.9435217 C31.8019802,25.6691739 33.1156436,27.5024348 34.2451485,29.4362609 C36.7916832,33.7961739 38.2926733,38.4483913 38.7057426,43.2645652 C39.4815842,52.308 36.2788119,61.0333043 29.6875248,67.8326087 C22.7671287,74.9703913 13.0946535,78.9894783 2.93861386,79.7716957 L2.97544554,80.8927826 C13.8431683,80.0710435 23.5841584,75.7267826 30.4954455,68.5972174 C37.3128713,61.5658696 40.6249505,52.5357391 39.8209901,43.1706522 C39.3940594,38.192087 37.8439604,33.384913 35.2146535,28.8833478" id="Fill-18" fill="#D42679"></path>
                    <path d="M0.368712871,1.34804348 C0.427326733,1.34765217 0.486336634,1.34608696 0.544950495,1.34608696 C9.33029703,1.34608696 17.4087129,4.65221739 23.4510891,10.760087 C25.4875248,12.8187391 27.2344554,15.1282174 28.6815842,17.663087 L29.8534653,17.4697826 C28.3215842,14.7138261 26.450297,12.2094783 24.2514851,9.98686957 C17.9461386,3.61330435 9.50217822,0.188217391 0.332673267,0.242608696 L0.368712871,1.34804348" id="Fill-20" fill="#572A79"></path>
                </g>
                <path d="M13.3298793,28.7822192 C19.4067773,15.056973 31.8466242,4.56421617 45.9805596,2.12118224 L46,1 C37.1760601,2.4645759 28.7690961,6.98547202 21.9578287,14.0092918 C17.6920582,18.4088529 14.3280823,23.5076459 12,29 L13.3298793,28.7822192" id="Fill-22" fill="#572A79"></path>
                <path d="M81.8291519,24.2330056 C83.5428354,29.2028958 84.2013485,34.5627921 83.7833864,40.1683615 C82.426462,58.3750421 69.8736525,74.3426426 54,79.8545491 L54.037574,81 C60.4739587,78.8388444 66.5129114,74.9671897 71.6287836,69.6330123 C79.3593403,61.5733989 84.0638355,51.137282 84.8753561,40.2482053 C85.3006781,34.5401441 84.6359672,29.0762206 82.9048524,24 L81.8291519,24.2330056" id="Fill-23" fill="#572A79"></path>
                <path d="M43.9811229,83.9341901 L44,82.8030578 C43.8800518,82.8106359 43.7601036,82.8206071 43.6397621,82.8269887 C43.0467066,82.8573011 42.4583704,82.8724573 41.8712141,82.8724573 C33.1480291,82.8724573 25.1248697,79.5025925 19.1254925,73.2769776 C15.6308699,69.6506537 12.9884697,65.2649236 11.2718337,60.2414359 C9.49188081,55.0320851 8.80679951,49.4075338 9.23546691,43.5233326 C9.34676313,41.9985376 9.53356773,40.4900953 9.78801526,39 L8.61409581,39.2604476 C8.39228993,40.6436517 8.2290817,42.0384223 8.12683076,43.4399734 C7.68715171,49.4781298 8.39189665,55.2554398 10.2214019,60.61037 C11.9923096,65.7925992 14.7204433,70.3191225 18.3302948,74.0651008 C24.5428259,80.5108797 32.8440292,84 41.8684612,84 C42.4744946,84 43.0840675,83.9840461 43.6963934,83.952936 C43.7911721,83.9477509 43.8859509,83.9401728 43.9811229,83.9341901" id="Fill-24" fill="#572A79"></path>
                <path d="M103.565484,54.5335313 C103.141087,52.9405236 103,51.0583727 103,48.4521981 C103,45.6528728 103.188495,43.9627068 103.565484,42.4190555 C104.507579,38.6061746 107.663064,36 112.137634,36 C116.612582,36 119.909154,38.6547538 120.75757,41.9845635 C120.898278,42.4190555 120.946065,42.8531588 120.992715,43.2398489 C121.040123,43.5775712 120.851249,43.7217541 120.569075,43.7703333 L119.72066,43.867103 C119.438107,43.9149049 119.249612,43.7703333 119.202583,43.4322224 L119.060738,42.7567778 C118.496013,40.0060316 115.858982,37.6890001 112.090225,37.6890001 C108.369256,37.6890001 105.825904,39.9574524 105.260799,43.1426906 C105.025655,44.2048253 104.83716,46.0869761 104.83716,48.5003886 C104.83716,51.1061746 105.025655,52.7955634 105.21415,53.8087303 C105.873312,57.0433248 108.369256,59.3117771 112.090225,59.3117771 C115.811195,59.3117771 118.59007,56.9951343 119.060738,54.1950317 L119.108905,53.9540791 C119.155555,53.6163568 119.390699,53.5191985 119.67401,53.5677776 L120.474638,53.7131265 C120.75757,53.7609284 120.946065,53.9054999 120.898278,54.2432222 C120.851249,54.436373 120.851249,54.6781028 120.75757,55.0162138 C120.003591,58.4424046 116.565174,61 112.137634,61 C107.663064,61 104.554608,58.3460235 103.565484,54.5335313" id="Fill-25" fill="#FFFFFE"></path>
                <path d="M128.078576,43.0950567 C127.937443,44.0118141 127.84272,45.4594279 127.84272,47.2455309 C127.84272,47.3904866 127.937443,47.4386756 128.031786,47.4386756 L141.968975,47.4386756 C142.062937,47.4386756 142.15766,47.3904866 142.15766,47.2455309 C142.15766,45.5561946 142.109728,43.9632364 141.921424,43.1910462 C141.259885,39.9573294 138.708836,37.6893362 134.976605,37.6893362 C131.197202,37.6893362 128.693324,39.9573294 128.078576,43.0950567 M141.921424,55.0156226 C142.015766,54.7260998 142.205212,54.6297217 142.487858,54.7260998 L143.102606,54.9192445 C143.386013,55.0156226 143.527527,55.2087673 143.432804,55.5468677 C142.205212,58.7320068 139.181309,61 135.023395,61 C130.629626,61 127.606104,58.4902845 126.519264,54.7746774 C126.094723,53.1331416 126,51.1064822 126,48.451811 C126,45.7489507 126.047171,44.0600031 126.37813,42.5156226 C127.322696,38.6546712 130.489253,36 134.976605,36 C139.747744,36 142.913541,38.7992383 143.716212,42.9979014 C144,44.3013369 144,45.2666718 144,48.451811 C144,48.7899114 143.810935,48.9830561 143.527527,48.9830561 L128.031786,48.9830561 C127.937443,48.9830561 127.84272,49.0308565 127.84272,49.1754236 C127.84272,51.3952277 127.84272,52.9399969 128.078576,53.8089538 C128.693324,57.0912483 131.291164,59.3110524 135.117738,59.3110524 C138.472219,59.3110524 140.834203,57.5735271 141.921424,55.0156226" id="Fill-26" fill="#FFFFFE"></path>
                <path d="M168,44.3005078 L168,60.5088036 C168,60.8034423 167.799354,61 167.498587,61 L166.546225,61 C166.245055,61 166.044409,60.8034423 166.044409,60.5088036 L166.044409,44.6445826 C166.044409,40.5678895 163.185709,37.7191875 159.175616,37.7191875 C154.813484,37.7191875 151.955591,40.5184535 151.955591,44.546106 L151.955591,60.5088036 C151.955591,60.8034423 151.755349,61 151.454986,61 L150.501817,61 C150.199839,61 150,60.8034423 150,60.5088036 L150,36.8352712 C150,36.5406325 150.199839,36.3440748 150.501817,36.3440748 L151.454986,36.3440748 C151.755349,36.3440748 151.955591,36.5406325 151.955591,36.8352712 L151.955591,39.4874156 C151.955591,39.6839732 152.055713,39.7330138 152.155834,39.5854967 C153.610012,37.2770316 156.167541,36 159.52604,36 C164.540573,36 168,39.3398984 168,44.3005078" id="Fill-27" fill="#FFFFFE"></path>
                <path d="M183.516104,38.6791521 L177.660649,38.6791521 C177.564026,38.6791521 177.467403,38.7747766 177.467403,38.8700172 L177.467403,54.7041399 C177.467403,58.2334161 179.161818,59.2825981 182.451299,59.2825981 L183.516104,59.2825981 C183.806364,59.2825981 184,59.4734632 184,59.7599529 L184,60.475025 C184,60.7611306 183.854286,60.9523797 183.516104,61 L182.306364,61 C178.386883,61 175.62961,59.9028137 175.62961,55.0382498 L175.62961,38.8700172 C175.62961,38.7747766 175.531818,38.6791521 175.435584,38.6791521 L172.483896,38.6791521 C172.193247,38.6791521 172,38.488287 172,38.2029494 L172,37.5347295 C172,37.2486239 172.193247,37.0577588 172.483896,37.0577588 L175.435584,37.0577588 C175.531818,37.0577588 175.62961,36.9625182 175.62961,36.8668937 L175.62961,31.4777388 C175.62961,31.1916332 175.822857,31 176.113117,31 L176.983117,31 C177.274545,31 177.467403,31.1916332 177.467403,31.4777388 L177.467403,36.8668937 C177.467403,36.9625182 177.564026,37.0577588 177.660649,37.0577588 L183.516104,37.0577588 C183.806364,37.0577588 184,37.2486239 184,37.5347295 L184,38.2029494 C184,38.488287 183.806364,38.6791521 183.516104,38.6791521" id="Fill-28" fill="#FFFFFE"></path>
                <path d="M203.107689,53.4232061 L203.107689,48.5 C203.107689,48.4032303 203.010417,48.3068493 202.913536,48.3068493 L197.043232,48.3068493 C192.288235,48.3068493 188.89192,50.4311186 188.89192,54.1950317 C188.89192,57.7187694 191.706556,59.3117771 195.150921,59.3117771 C199.080865,59.3117771 203.107689,57.4292377 203.107689,53.4232061 M205,44.0598651 L205,60.1317933 C205,60.4213251 204.805847,60.6148644 204.514031,60.6148644 L203.592877,60.6148644 C203.301061,60.6148644 203.107689,60.4213251 203.107689,60.1317933 L203.107689,57.8151505 C203.107689,57.6701903 203.010417,57.5738092 202.865486,57.7187694 C201.117716,59.9390312 198.061658,61 194.907937,61 C191.026434,61 187,59.263198 187,54.2918014 C187,49.5621347 190.784231,46.7142302 196.994401,46.7142302 L202.913536,46.7142302 C203.010417,46.7142302 203.107689,46.6174605 203.107689,46.5210795 L203.107689,44.0120632 C203.107689,40.3915558 201.263429,37.6886115 196.508822,37.6886115 C193.015626,37.6886115 190.590859,39.23304 190.10489,41.6950317 C190.00879,42.0331426 189.814636,42.1781028 189.523211,42.1295237 L188.504004,41.9841749 C188.212579,41.936373 188.018426,41.7428336 188.068429,41.501881 C188.746598,38.2198732 191.94876,36 196.605703,36 C202.331076,36 205,39.23304 205,44.0598651" id="Fill-29" fill="#FFFFFE"></path>
                <path d="M211.788857,54.0741669 C211.198008,52.4610295 211,50.5640747 211,48.3813926 C211,45.914511 211.295623,44.1596559 211.788857,42.7829694 C213.168959,38.6089813 217.110862,36 222.186846,36 C227.46044,36 231.499561,38.8461962 232.682846,42.499152 C232.880854,43.0205663 232.929662,43.494996 232.978469,43.8273259 C233.077275,44.3495042 232.831253,44.586337 232.338416,44.6818342 L228.248106,45.2975996 C227.755269,45.3930967 227.46044,45.1554999 227.360841,44.7288187 L227.213625,44.1119073 C226.769198,42.2615552 224.847451,40.7435329 222.186846,40.7435329 C219.623458,40.7435329 217.850514,42.1198374 217.258872,44.2066405 C216.963249,45.1085153 216.766432,46.5787889 216.766432,48.4291411 C216.766432,50.3734625 216.963249,51.749767 217.209271,52.6512598 C217.850514,54.833178 219.57465,56.2564671 222.186846,56.2564671 C224.699838,56.2564671 226.621585,54.9279111 227.163627,52.8884746 C227.213625,52.7459929 227.213625,52.6512598 227.213625,52.6512598 C227.263226,52.414045 227.656464,51.8918667 228.149301,51.9869818 L232.23961,52.6038932 C232.731654,52.6982444 232.978469,52.9835898 232.880854,53.4572555 C232.831253,53.7418369 232.782445,54.0741669 232.682846,54.4064969 C231.401946,58.4861338 227.263226,61 222.186846,61 C217.110862,61 213.217767,58.2962855 211.788857,54.0741669" id="Fill-30" fill="#FFFFFE"></path>
                <path d="M251.147121,52.2709326 L251.147121,50.0890478 C251.147121,49.8995844 251.04595,49.8044707 250.843608,49.8044707 L246.656189,49.8044707 C243.123333,49.8044707 240.852473,51.0852585 240.852473,53.4573707 C240.852473,55.5445239 242.719869,56.6354663 245.142688,56.6354663 C248.320836,56.6354663 251.147121,54.8802561 251.147121,52.2709326 M257,44.0644176 L257,59.8616917 C257,60.3357322 256.6973,60.6203093 256.192664,60.6203093 L251.954456,60.6203093 C251.449821,60.6203093 251.147121,60.3357322 251.147121,59.8616917 L251.147121,58.6752536 C251.147121,58.4376604 250.995568,58.3906766 250.792819,58.5327741 C249.027407,60.1462688 246.554612,61 243.528017,61 C238.834337,61 235,58.8181151 235,53.8370615 C235,48.9503575 238.784361,46.0098552 245.494958,46.0098552 L250.843608,46.0098552 C251.04595,46.0098552 251.147121,45.9147415 251.147121,45.7245141 L251.147121,44.6335717 C251.147121,42.2140936 249.63362,40.7434605 246.45466,40.7434605 C244.03184,40.7434605 242.467551,41.5971917 241.963728,42.9734751 C241.811768,43.4475156 241.559857,43.637361 241.055221,43.5903771 L236.513501,43.0682068 C236.009678,43.020459 235.706977,42.7832478 235.756953,42.4509229 C236.362354,38.7040551 240.499391,36 246.3027,36 C252.811768,36 257,39.4153068 257,44.0644176" id="Fill-31" fill="#FFFFFE"></path>
                <g id="Group-35" transform="translate(262.000000, 35.000000)">
                    <mask id="mask-4" fill="white">
                        <use xlink:href="#path-3"></use>
                    </mask>
                    <g id="Clip-33"></g>
                    <path d="M14.5832,0.687272727 C14.98,0.890590909 15.1292,1.24609091 15.0308,1.70386364 L14.2348,5.92036364 C14.1356,6.47918182 13.8384,6.58063636 13.2908,6.42763636 C12.6456,6.22513636 11.7508,6.12368182 10.7576,6.27586364 C8.0752,6.42763636 5.89,8.30740909 5.89,11.4070909 L5.89,25.5816818 C5.89,26.0897727 5.5916,26.3945455 5.0948,26.3945455 L0.922,26.3945455 C0.4252,26.3945455 0.1276,26.0897727 0.1276,25.5816818 L0.1276,1.24609091 C0.1276,0.738 0.4252,0.433227273 0.922,0.433227273 L5.0948,0.433227273 C5.5916,0.433227273 5.89,0.738 5.89,1.24609091 L5.89,3.22772727 C5.89,3.48136364 6.0388,3.58363636 6.1872,3.33 C7.4792,1.34754545 9.3664,0.128454545 11.95,0.128454545 C13.1424,0.128454545 13.9368,0.3825 14.5832,0.687272727" id="Fill-32" fill="#FFFFFE" mask="url(#mask-4)"></path>
                    <path d="M23.6392,8.66331818 C23.44,9.27327273 23.2904,9.93354545 23.2408,10.7967273 C23.1912,11.0008636 23.2904,11.1023182 23.4896,11.1023182 L33.474,11.1023182 C33.6732,11.1023182 33.7724,11.0008636 33.7724,10.7967273 C33.6732,10.0354091 33.6228,9.42627273 33.474,8.96890909 C32.8776,6.63177273 31.09,5.10790909 28.4072,5.10790909 C25.8236,5.10790909 24.2344,6.53031818 23.6392,8.66331818 M34.8152,19.0276364 C35.1132,18.5702727 35.5108,18.4692273 35.908,18.774 L38.292,20.7040909 C38.6408,21.0092727 38.7904,21.3651818 38.4908,21.8217273 C36.604,24.8702727 33.226,26.8011818 28.8544,26.8011818 C23.4896,26.8011818 19.9624,24.0066818 18.4224,19.5868636 C17.7768,17.7578182 17.4284,15.624 17.4284,13.2872727 C17.4284,11.052 17.528,9.42627273 17.9744,7.90159091 C19.2164,3.12627273 23.142,0.027 28.4568,0.027 C35.1132,0.027 38.3428,3.98945455 39.3364,10.4416364 C39.5352,11.7114545 39.634,13.1342727 39.6836,14.6086364 C39.6836,15.1163182 39.3856,15.4206818 38.8892,15.4206818 L23.4896,15.4206818 C23.2904,15.4206818 23.1912,15.5225455 23.1912,15.7258636 C23.1912,16.6393636 23.2904,17.4023182 23.4896,17.9611364 C24.1852,20.349 26.3216,21.8217273 29.4004,21.8217273 C31.884,21.7206818 33.7224,20.6537727 34.8152,19.0276364" id="Fill-34" fill="#FFFFFE" mask="url(#mask-4)"></path>
                </g>
                <path d="M130,81.9753689 L130,76.9890116 C130,74.5954562 131.599791,73 133.999652,73 C136.399861,73 138,74.5590947 138,76.9166595 C138,77.0257442 137.915012,77.0977253 137.778823,77.115906 L137.012191,77.1697063 C136.876698,77.1886292 136.790665,77.1344579 136.790665,77.0613637 L136.790665,76.9530211 C136.790665,75.2481091 135.685127,74.1238691 133.999652,74.1238691 C132.33194,74.1238691 131.207941,75.2481091 131.207941,76.9530211 L131.207941,82.0291692 C131.207941,83.7340811 132.33194,84.8575791 133.999652,84.8575791 C135.685127,84.8575791 136.790665,83.7340811 136.790665,82.0291692 C136.790665,81.9026458 136.858586,81.8121129 137.012191,81.8299227 L137.778823,81.8662842 C137.915012,81.8662842 138,81.9026458 138,81.9571881 L138,82.0473499 C138,84.4230956 136.399861,86 133.999652,86 C131.599791,86 130,84.386734 130,81.9753689" id="Fill-36" fill="#FFFFFE"></path>
                <path d="M145.751748,82.7433746 L145.751748,81.2681512 C145.751748,81.2113063 145.715755,81.1728869 145.663204,81.1728869 L143.816382,81.1728869 C142.286302,81.1728869 141.249332,81.8816842 141.249332,83.1263917 C141.249332,84.2954367 142.109934,84.831347 143.183258,84.831347 C144.4855,84.831347 145.751748,84.0845225 145.751748,82.7433746 M147,79.2185981 L147,85.5985573 C147,85.7510585 146.911816,85.8471068 146.770722,85.8471068 L145.979947,85.8471068 C145.839572,85.8471068 145.751748,85.7510585 145.751748,85.5985573 L145.751748,84.9081857 C145.751748,84.831347 145.698478,84.7937118 145.645208,84.8701584 C144.994807,85.6173749 144.010027,86 142.901429,86 C141.406623,86 140,85.2147562 140,83.2032304 C140,81.2873608 141.336796,80.0994982 143.623097,80.0994982 L145.663204,80.0994982 C145.715755,80.0994982 145.751748,80.0618629 145.751748,80.004234 L145.751748,79.2946527 C145.751748,78.0495531 145.152818,77.1878626 143.693645,77.1878626 C142.585767,77.1878626 141.863739,77.6861377 141.671174,78.4905912 C141.635181,78.6434844 141.548077,78.7011134 141.406623,78.6819037 L140.5453,78.5674298 C140.404926,78.5482202 140.316382,78.4905912 140.334379,78.3557315 C140.562577,76.9577387 141.863739,76 143.675648,76 C145.821935,76 147,77.3219382 147,79.2185981" id="Fill-37" fill="#FFFFFE"></path>
                <path d="M155.854237,76.2342811 C155.98619,76.2935523 156.023781,76.4104926 155.98619,76.5478574 L155.799001,77.4084902 C155.761027,77.5650781 155.667816,77.6239487 155.498656,77.5650781 C155.27426,77.4869844 154.973915,77.4477373 154.579592,77.4673608 C153.286536,77.5062074 152.331031,78.5634762 152.331031,80.031638 L152.331031,85.7456948 C152.331031,85.9022827 152.237821,86 152.087073,86 L151.244342,86 C151.094361,86 151,85.9022827 151,85.7456948 L151,76.3520224 C151,76.1954345 151.094361,76.0973168 151.244342,76.0973168 L152.087073,76.0973168 C152.237821,76.0973168 152.331031,76.1954345 152.331031,76.3520224 L152.331031,77.4477373 C152.331031,77.545855 152.387418,77.5650781 152.424626,77.4869844 C152.930187,76.5863036 153.736861,76 154.823934,76 C155.293439,76 155.611429,76.0973168 155.854237,76.2342811" id="Fill-38" fill="#FFFFFE"></path>
                <path d="M158.337012,78.9884742 C158.251342,79.2954367 158.217284,79.7360828 158.199729,80.2915948 C158.199729,80.3484397 158.23484,80.3872511 158.286452,80.3872511 L162.695992,80.3872511 C162.746903,80.3872511 162.781311,80.3484397 162.781311,80.2915948 C162.764809,79.7741101 162.728996,79.333856 162.678086,79.0653128 C162.438281,77.9542889 161.648643,77.1878626 160.464714,77.1878626 C159.297638,77.1878626 158.560666,77.9350792 158.337012,78.9884742 M162.833275,83.3949349 C162.884185,83.2608593 163.003912,83.2036224 163.123991,83.280069 L163.621508,83.5866395 C163.742288,83.6634781 163.794603,83.778344 163.725084,83.9120276 C163.192807,85.1575192 162.078046,86 160.532828,86 C158.902994,86 157.788233,85.0806806 157.325124,83.6058491 C157.085319,82.8962678 157,82.0345774 157,80.9619727 C157,79.9846323 157.016151,79.333856 157.153433,78.7395327 C157.530872,77.0918143 158.766765,76 160.464714,76 C162.506395,76 163.588504,77.2839109 163.895722,79.2954367 C163.982445,79.8121374 164,80.3104124 164,81.2113063 C164,81.3641995 163.913628,81.4598557 163.776345,81.4598557 L158.286452,81.4598557 C158.23484,81.4598557 158.199729,81.4982751 158.199729,81.555904 C158.199729,82.1878626 158.23484,82.6673201 158.303657,82.9542889 C158.543111,84.0653128 159.38401,84.8321311 160.637107,84.8321311 C161.699905,84.8121374 162.438281,84.2566254 162.833275,83.3949349" id="Fill-39" fill="#FFFFFE"></path>
                <path d="M171.352027,85.7582951 L171.352027,76.8440962 C171.352027,76.6955009 171.444487,76.6023913 171.592649,76.6023913 L172.425919,76.6023913 C172.57446,76.6023913 172.667677,76.6955009 172.667677,76.8440962 L172.667677,85.7582951 C172.667677,85.9068904 172.57446,86 172.425919,86 L171.592649,86 C171.444487,86 171.352027,85.9068904 171.352027,85.7582951 M171,73.9470576 C171,73.3895402 171.408109,73 172.000758,73 C172.593407,73 173,73.3895402 173,73.9470576 C173,74.522817 172.593407,74.9123571 172.000758,74.9123571 C171.408109,74.9123571 171,74.522817 171,73.9470576" id="Fill-40" fill="#FFFFFE"></path>
                <path d="M174,83.4225659 L174,83.2484632 C174,83.0926036 174.093714,82.9962324 174.243048,82.9962324 L175.043048,82.9962324 C175.191619,82.9962324 175.285333,83.0739639 175.285333,83.1703351 L175.285333,83.3456276 C175.285333,84.1586357 176.179048,84.9339679 177.519238,84.9339679 C178.820952,84.9339679 179.678476,84.2367638 179.678476,83.3254015 C179.678476,82.2788023 178.597714,81.9881023 177.370667,81.6010311 C175.768381,81.116399 174.055238,80.5544319 174.055238,78.7130676 C174.055238,77.0462027 175.45219,76 177.463238,76 C179.54781,76 180.925333,77.143367 180.925333,78.6745985 C180.925333,78.8292683 180.832381,78.9264327 180.682667,78.9264327 L179.92,78.9264327 C179.771429,78.9264327 179.678476,78.8685306 179.678476,78.7904025 L179.678476,78.6745985 C179.678476,77.8219314 178.840381,77.1239342 177.444571,77.1239342 C176.196952,77.1239342 175.340571,77.6859012 175.340571,78.6162998 C175.340571,79.5851676 176.345524,79.9337696 177.611429,80.3224271 C179.193524,80.7868332 181,81.3103312 181,83.2290303 C181,84.8954987 179.640381,86 177.537143,86 C175.39581,86 174,84.8368035 174,83.4225659" id="Fill-41" fill="#FFFFFE"></path>
                <path d="M193.469085,82.934959 C193.583835,82.4750853 193.621824,81.7662602 193.621824,81.000196 C193.621824,80.1572902 193.583835,79.4861019 193.469085,79.065433 C193.181231,77.9351551 192.262838,77.1879092 190.980614,77.1879092 C189.736378,77.1879092 188.83796,77.9351551 188.530915,79.065433 C188.416557,79.4861019 188.378176,80.1953189 188.378176,81.000196 C188.378176,81.8238915 188.416557,82.5135061 188.530915,82.934959 C188.817986,84.0848395 189.736378,84.8124828 191.019386,84.8124828 C192.24404,84.8124828 193.162432,84.0848395 193.469085,82.934959 M187.268272,83.3372016 C187.076761,82.7052182 187,81.9003411 187,80.9809856 C187,80.0420277 187.076761,79.256361 187.249082,78.6439801 C187.746071,77.0154075 189.123464,76 191.019386,76 C192.856562,76 194.253145,77.0154075 194.731728,78.6247697 C194.92363,79.2755714 195,80.0804485 195,80.9809856 C195,81.9003411 194.92363,82.7052182 194.731728,83.3372016 C194.233955,84.9853766 192.837764,86 191.019386,86 C189.143046,86 187.766045,84.9853766 187.268272,83.3372016" id="Fill-42" fill="#FFFFFE"></path>
                <path d="M201.946261,76 L202.764099,76 C202.909584,76 203,76.0977264 203,76.2536897 L203,85.6098923 C203,85.7658556 202.909584,85.8631831 202.764099,85.8631831 L201.946261,85.8631831 C201.800776,85.8631831 201.709616,85.7658556 201.709616,85.6098923 L201.709616,84.8695652 C201.709616,84.7909852 201.655664,84.7522936 201.599851,84.8296769 C201.108329,85.570004 200.308723,86 199.200287,86 C197.472333,86 196,84.8695652 196,82.7838053 L196,76.2536897 C196,76.0977264 196.090416,76 196.235901,76 L197.054484,76 C197.199968,76 197.291501,76.0977264 197.291501,76.2536897 L197.291501,82.3737535 C197.291501,83.836059 198.109339,84.7909852 199.454792,84.7909852 C200.836709,84.7909852 201.709616,83.8165138 201.709616,82.3737535 L201.709616,76.2536897 C201.709616,76.0977264 201.800776,76 201.946261,76" id="Fill-43" fill="#FFFFFE"></path>
                <path d="M210.855906,76.2342811 C210.986327,76.2935523 211.023536,76.4104926 210.986327,76.5478574 L210.798367,77.4084902 C210.761542,77.5650781 210.667561,77.6239487 210.49878,77.5650781 C210.274379,77.4869844 209.974409,77.4477373 209.580842,77.4673608 C208.287366,77.5062074 207.331835,78.5634762 207.331835,80.031638 L207.331835,85.7456948 C207.331835,85.9022827 207.237472,86 207.087103,86 L206.243198,86 C206.093597,86 206,85.9022827 206,85.7456948 L206,76.3520224 C206,76.1954345 206.093597,76.0973168 206.243198,76.0973168 L207.087103,76.0973168 C207.237472,76.0973168 207.331835,76.1954345 207.331835,76.3520224 L207.331835,77.4477373 C207.331835,77.545855 207.387456,77.5650781 207.424665,77.4869844 C207.931775,76.5863036 208.736937,76 209.824424,76 C210.292407,76 210.611173,76.0973168 210.855906,76.2342811" id="Fill-44" fill="#FFFFFE"></path>
                <path d="M216.254879,83.3369139 C216.058418,82.6853536 216,81.9381371 216,80.9611886 C216,79.9077936 216.098431,79.2182061 216.254879,78.6242747 C216.724225,77.053003 218.151068,76 220.047256,76 C222.02267,76 223.488725,77.111024 223.880046,78.4709895 C223.938864,78.6626941 223.977677,78.8543986 223.997683,78.9884742 C224.016489,79.1605771 223.919258,79.2566254 223.76321,79.275835 L222.902543,79.3714913 C222.746494,79.3903089 222.648464,79.333072 222.608852,79.1605771 C222.608852,79.0845225 222.590046,79.0076839 222.57004,78.9304532 C222.355173,77.9927082 221.396475,77.1878626 220.047256,77.1878626 C218.717244,77.1878626 217.818965,77.9538968 217.564486,79.0457111 C217.466055,79.4483299 217.388431,80.1187079 217.388431,80.9811824 C217.388431,81.9197115 217.466055,82.5516701 217.564486,82.9346872 C217.818965,84.0457111 218.717244,84.8121374 220.047256,84.8121374 C221.357663,84.8121374 222.335567,84.0649208 222.549633,83.0879724 C222.57004,83.0499451 222.57004,83.0115258 222.57004,82.9927082 L222.590046,82.9731065 C222.608852,82.8006116 222.726488,82.7429826 222.882537,82.7625843 L223.722797,82.8962678 C223.880046,82.9154775 223.977677,83.0115258 223.95767,83.1840207 C223.938864,83.2608593 223.919258,83.3757253 223.880046,83.5094088 C223.488725,84.9846323 221.964652,86 220.047256,86 C218.132262,86 216.743431,84.946213 216.254879,83.3369139" id="Fill-45" fill="#FFFFFE"></path>
                <path d="M230.751093,82.7433746 L230.751093,81.2681512 C230.751093,81.2113063 230.717261,81.1728869 230.663273,81.1728869 L228.817266,81.1728869 C227.286184,81.1728869 226.248907,81.8816842 226.248907,83.1263917 C226.248907,84.2954367 227.110905,84.831347 228.184174,84.831347 C229.484909,84.831347 230.751093,84.0845225 230.751093,82.7433746 M232,79.2185981 L232,85.5985573 C232,85.7510585 231.91254,85.8471068 231.772173,85.8471068 L230.979639,85.8471068 C230.839632,85.8471068 230.751093,85.7510585 230.751093,85.5985573 L230.751093,84.9081857 C230.751093,84.831347 230.698905,84.7937118 230.646717,84.8701584 C229.99527,85.6173749 229.01054,86 227.90236,86 C226.40727,86 225,85.2147562 225,83.2032304 C225,81.2873608 226.336727,80.0994982 228.623631,80.0994982 L230.663273,80.0994982 C230.717261,80.0994982 230.751093,80.0618629 230.751093,80.004234 L230.751093,79.2946527 C230.751093,78.0495531 230.153992,77.1878626 228.693815,77.1878626 C227.584914,77.1878626 226.865083,77.6861377 226.670729,78.4905912 C226.636537,78.6434844 226.547997,78.7011134 226.40727,78.6819037 L225.544912,78.5674298 C225.404185,78.5482202 225.316726,78.4905912 225.334002,78.3557315 C225.563268,76.9577387 226.865083,76 228.676539,76 C230.820916,76 232,77.3219382 232,79.2185981" id="Fill-46" fill="#FFFFFE"></path>
                <path d="M236,85.7586681 L236,73.2409519 C236,73.0923522 236.070276,73 236.182892,73 L236.816244,73 C236.929147,73 237,73.0923522 237,73.2409519 L237,85.7586681 C237,85.9072677 236.929147,86 236.816244,86 L236.182892,86 C236.070276,86 236,85.9072677 236,85.7586681" id="Fill-47" fill="#FFFFFE"></path>
                <path d="M240,85.7586681 L240,73.2409519 C240,73.0923522 240.071511,73 240.183968,73 L240.817186,73 C240.929931,73 241,73.0923522 241,73.2409519 L241,85.7586681 C241,85.9072677 240.929931,86 240.817186,86 L240.183968,86 C240.071511,86 240,85.9072677 240,85.7586681" id="Fill-48" fill="#FFFFFE"></path>
                <path d="M244.352094,85.7582951 L244.352094,76.8440962 C244.352094,76.6955009 244.444192,76.6023913 244.592382,76.6023913 L245.426189,76.6023913 C245.574379,76.6023913 245.667614,76.6955009 245.667614,76.8440962 L245.667614,85.7582951 C245.667614,85.9068904 245.574379,86 245.426189,86 L244.592382,86 C244.444192,86 244.352094,85.9068904 244.352094,85.7582951 M244,73.9470576 C244,73.3895402 244.408186,73 245.000948,73 C245.592951,73 246,73.3895402 246,73.9470576 C246,74.522817 245.592951,74.9123571 245.000948,74.9123571 C244.408186,74.9123571 244,74.522817 244,73.9470576" id="Fill-49" fill="#FFFFFE"></path>
                <g id="Group-53" transform="translate(248.000000, 76.000000)">
                    <mask id="mask-6" fill="white">
                        <use xlink:href="#path-5"></use>
                    </mask>
                    <g id="Clip-51"></g>
                    <path d="M7.506,3.40410714 L7.506,9.68117857 C7.506,9.83478571 7.4072,9.93103571 7.2516,9.93103571 L6.3724,9.93103571 C6.216,9.93103571 6.1188,9.83478571 6.1188,9.68117857 L6.1188,3.67242857 C6.1188,2.25225 5.1808,1.27325 3.7916,1.27325 C2.4624,1.27325 1.5244,2.07978571 1.3872,3.28860714 L1.3872,9.68117857 C1.3872,9.83478571 1.29,9.93103571 1.1336,9.93103571 L0.2552,9.93103571 C0.098,9.93103571 0,9.83478571 0,9.68117857 L0,0.466321429 C0,0.312714286 0.098,0.216464286 0.2552,0.216464286 L1.1336,0.216464286 C1.29,0.216464286 1.3872,0.312714286 1.3872,0.466321429 L1.3872,1.17739286 C1.3872,1.25360714 1.4468,1.31135714 1.4852,1.23435714 C2.0528,0.466321429 2.9708,0.0828928571 4.1052,0.0828928571 C6.1564,0.0828928571 7.506,1.38796429 7.506,3.40410714" id="Fill-50" fill="#FFFFFE" mask="url(#mask-6)"></path>
                    <path d="M16.264,5.05489286 C16.264,3.73096429 16.2452,3.49957143 16.1464,3.11535714 C15.9508,2.07860714 15.1096,1.25360714 13.8212,1.25360714 C12.53,1.25360714 11.6904,2.07860714 11.3776,3.11535714 C11.26,3.48032143 11.1816,3.99889286 11.1816,5.03564286 C11.1816,6.09085714 11.2784,6.70567857 11.3776,6.97439286 C11.632,8.01075 12.53,8.83692857 13.8212,8.83692857 C15.1688,8.83692857 15.9704,7.99228571 16.1668,6.99403571 C16.2452,6.62946429 16.264,6.37921429 16.264,5.05489286 M16.5176,0.216857143 L17.3976,0.216857143 C17.554,0.216857143 17.6524,0.312714286 17.6524,0.466321429 L17.6524,9.60496429 C17.6524,12.8487857 15.3644,13.9051786 12.2952,13.7323214 C12.1196,13.7130714 12.0416,13.6364643 12.0416,13.4632143 L12.0812,12.6951786 C12.0812,12.5227143 12.1792,12.4461071 12.3356,12.4645714 C15.0912,12.5800714 16.264,11.7165714 16.264,9.56607143 L16.264,8.89389286 C16.264,8.81767857 16.2044,8.77878571 16.1464,8.85617857 C15.6196,9.52757143 14.818,9.98878571 13.6052,9.98878571 C11.9828,9.98878571 10.4968,9.10564286 10.028,7.41596429 C9.8524,6.82117857 9.7932,6.01464286 9.7932,5.07414286 C9.7932,4.07589286 9.834,3.26896429 10.048,2.61682143 C10.4968,1.11925 11.7688,0.0636428571 13.5272,0.0636428571 C14.7196,0.0636428571 15.5792,0.485571429 16.1464,1.15775 C16.2044,1.23475 16.264,1.19585714 16.264,1.11925 L16.264,0.466321429 C16.264,0.312714286 16.3612,0.216857143 16.5176,0.216857143" id="Fill-52" fill="#FFFFFE" mask="url(#mask-6)"></path>
                </g>
                <path d="M268,85.0003467 C268,84.4407074 268.468317,84 269.00033,84 C269.517162,84 270,84.4407074 270,85.0003467 C270,85.5592926 269.548515,86 269.00033,86 C268.420462,86 268,85.5592926 268,85.0003467" id="Fill-54" fill="#FFFFFE"></path>
            </g>
        </g>
    </g>
</svg>